<svg width="180" height="35" viewBox="0 0 200 35" fill="none" xmlns="http://www.w3.org/2000/svg">
<g clip-path="url(#clip0_5481_57456)">
<path fill-rule="evenodd" clip-rule="evenodd" d="M33.5257 1.54235C33.5257 1.91267 33.2255 2.21288 32.8552 2.21288C32.4849 2.21288 32.1847 1.91267 32.1847 1.54235C32.1847 1.17203 32.4849 0.871826 32.8552 0.871826C33.2255 0.871826 33.5257 1.17203 33.5257 1.54235ZM12.0684 4.89503C12.0684 5.63567 11.468 6.23608 10.7274 6.23608C9.98674 6.23608 9.38633 5.63567 9.38633 4.89503C9.38633 4.15439 9.98674 3.55398 10.7274 3.55398C11.468 3.55398 12.0684 4.15439 12.0684 4.89503ZM25.4813 10.9299C25.4813 12.0408 24.5807 12.9414 23.4698 12.9414C22.3588 12.9414 21.4582 12.0408 21.4582 10.9299C21.4582 9.8189 22.3588 8.91828 23.4698 8.91828C24.5807 8.91828 25.4813 9.8189 25.4813 10.9299ZM10.0577 26.3517C11.1687 26.3517 12.0693 25.4511 12.0693 24.3401C12.0693 23.2291 11.1687 22.3285 10.0577 22.3285C8.94678 22.3285 8.04617 23.2291 8.04617 24.3401C8.04617 25.4511 8.94678 26.3517 10.0577 26.3517ZM23.4698 26.3517C24.5807 26.3517 25.4813 25.4511 25.4813 24.3401C25.4813 23.2291 24.5807 22.3285 23.4698 22.3285C22.3588 22.3285 21.4582 23.2291 21.4582 24.3401C21.4582 25.4511 22.3588 26.3517 23.4698 26.3517ZM10.0577 12.9414C11.1687 12.9414 12.0693 12.0408 12.0693 10.9299C12.0693 9.8189 11.1687 8.91828 10.0577 8.91828C8.94678 8.91828 8.04617 9.8189 8.04617 10.9299C8.04617 12.0408 8.94678 12.9414 10.0577 12.9414ZM18.7753 27.9163C18.7753 29.0273 17.8747 29.9279 16.7637 29.9279C15.6528 29.9279 14.7522 29.0273 14.7522 27.9163C14.7522 26.8053 15.6528 25.9047 16.7637 25.9047C17.8747 25.9047 18.7753 26.8053 18.7753 27.9163ZM6.4818 19.6466C7.59276 19.6466 8.49337 18.7459 8.49337 17.635C8.49337 16.524 7.59276 15.6234 6.4818 15.6234C5.37085 15.6234 4.47024 16.524 4.47024 17.635C4.47024 18.7459 5.37085 19.6466 6.4818 19.6466ZM5.36371 23.6696C5.36371 24.4102 4.76331 25.0106 4.02267 25.0106C3.28203 25.0106 2.68162 24.4102 2.68162 23.6696C2.68162 22.9289 3.28203 22.3285 4.02267 22.3285C4.76331 22.3285 5.36371 22.9289 5.36371 23.6696ZM4.02267 12.9412C4.76331 12.9412 5.36371 12.3408 5.36371 11.6001C5.36371 10.8595 4.76331 10.2591 4.02267 10.2591C3.28203 10.2591 2.68162 10.8595 2.68162 11.6001C2.68162 12.3408 3.28203 12.9412 4.02267 12.9412ZM10.7274 31.716C11.468 31.716 12.0684 31.1156 12.0684 30.375C12.0684 29.6343 11.468 29.0339 10.7274 29.0339C9.98674 29.0339 9.38633 29.6343 9.38633 30.375C9.38633 31.1156 9.98674 31.716 10.7274 31.716ZM0.670522 34.3979C1.04084 34.3979 1.34104 34.0977 1.34104 33.7274C1.34104 33.3571 1.04084 33.0569 0.670522 33.0569C0.300203 33.0569 0 33.3571 0 33.7274C0 34.0977 0.300203 34.3979 0.670522 34.3979ZM23.0215 31.716C23.7622 31.716 24.3626 31.1156 24.3626 30.375C24.3626 29.6343 23.7622 29.0339 23.0215 29.0339C22.2809 29.0339 21.6805 29.6343 21.6805 30.375C21.6805 31.1156 22.2809 31.716 23.0215 31.716ZM30.8437 23.6696C30.8437 24.4102 30.2433 25.0106 29.5026 25.0106C28.762 25.0106 28.1616 24.4102 28.1616 23.6696C28.1616 22.9289 28.762 22.3285 29.5026 22.3285C30.2433 22.3285 30.8437 22.9289 30.8437 23.6696ZM29.5026 12.9412C30.2433 12.9412 30.8437 12.3408 30.8437 11.6001C30.8437 10.8595 30.2433 10.2591 29.5026 10.2591C28.762 10.2591 28.1616 10.8595 28.1616 11.6001C28.1616 12.3408 28.762 12.9412 29.5026 12.9412ZM24.1403 4.89503C24.1403 5.63567 23.5399 6.23608 22.7992 6.23608C22.0586 6.23608 21.4582 5.63567 21.4582 4.89503C21.4582 4.15439 22.0586 3.55398 22.7992 3.55398C23.5399 3.55398 24.1403 4.15439 24.1403 4.89503ZM16.7637 9.36523C17.8747 9.36523 18.7753 8.46462 18.7753 7.35365C18.7753 6.24269 17.8747 5.34208 16.7637 5.34208C15.6528 5.34208 14.7522 6.24269 14.7522 7.35365C14.7522 8.46462 15.6528 9.36523 16.7637 9.36523ZM29.056 17.635C29.056 18.7459 28.1553 19.6466 27.0444 19.6466C25.9334 19.6466 25.0328 18.7459 25.0328 17.635C25.0328 16.524 25.9334 15.6234 27.0444 15.6234C28.1553 15.6234 29.056 16.524 29.056 17.635ZM156.323 28.1396C154.889 28.1396 153.539 27.9022 152.272 27.4272C151.015 26.9523 149.902 26.2631 148.933 25.3598C147.974 24.4564 147.22 23.3575 146.67 22.063C146.121 20.7685 145.846 19.3018 145.846 17.6627C145.846 16.0889 146.121 14.6593 146.67 13.3742C147.22 12.0797 147.974 10.9668 148.933 10.0355C149.902 9.10424 151.015 8.38715 152.272 7.88426C153.539 7.38137 154.889 7.12992 156.323 7.12992C157.124 7.12992 157.999 7.2184 158.949 7.39534C159.909 7.57228 160.877 7.89357 161.855 8.35921L161.129 10.1752C160.141 9.73751 159.252 9.46278 158.46 9.35103C157.678 9.22996 156.966 9.16943 156.323 9.16943C155.364 9.16943 154.428 9.34637 153.515 9.70026C152.603 10.0448 151.783 10.571 151.057 11.2788C150.34 11.9772 149.767 12.8573 149.339 13.919C148.91 14.9806 148.696 16.2285 148.696 17.6627C148.696 19.0876 148.91 20.3308 149.339 21.3925C149.767 22.4542 150.34 23.3342 151.057 24.0327C151.783 24.7311 152.603 25.2573 153.515 25.6112C154.428 25.9558 155.364 26.1281 156.323 26.1281C156.733 26.1281 157.203 26.1001 157.734 26.0443C158.265 25.9791 158.838 25.8487 159.452 25.6531V18.3891H162.023V26.7707C161.352 27.1245 160.677 27.4039 159.997 27.6088C159.327 27.8044 158.679 27.9394 158.055 28.0139C157.431 28.0977 156.854 28.1396 156.323 28.1396ZM46.0991 27.8044L48.3621 7.49312H51.7985L57.2465 23.8092L57.4421 24.6753L57.6377 23.8092L63.0857 7.49312H66.5221L68.7572 27.8044H66.2148L64.6223 11.5442L64.5385 10.3428L64.2032 11.5442L58.6714 27.525H56.1849L50.6251 11.5163L50.2619 10.3428L50.1781 11.5163L48.6136 27.8044H46.0991ZM72.1438 27.8044V14.8046H74.5577V27.8044H72.1438ZM73.3508 12.5416C72.9233 12.5416 72.5629 12.3991 72.2696 12.1141C71.9846 11.8208 71.8421 11.4604 71.8421 11.0329C71.8421 10.5887 71.9846 10.2241 72.2696 9.93913C72.5629 9.64578 72.9233 9.4991 73.3508 9.4991C73.795 9.4991 74.1554 9.64578 74.432 9.93913C74.717 10.2241 74.8595 10.5887 74.8595 11.0329C74.8595 11.4604 74.717 11.8208 74.432 12.1141C74.1554 12.3991 73.795 12.5416 73.3508 12.5416ZM86.4476 18.35V27.8044H88.8615V18.6015C88.8615 17.5621 88.6896 16.7491 88.346 16.1624C88.0023 15.5757 87.5456 15.1608 86.9756 14.9178C86.4057 14.6747 85.7854 14.5532 85.1149 14.5532C84.6623 14.5532 84.1343 14.6454 83.5308 14.8298C82.9357 15.0058 82.1898 15.3578 81.2929 15.8858C81.645 16.2462 82.0305 16.4767 82.4496 16.5773C82.8687 16.6779 83.3213 16.6737 83.8074 16.5647C84.0253 16.5144 84.2097 16.4684 84.3606 16.4264C84.5114 16.3845 84.6875 16.3636 84.8886 16.3636C85.4083 16.3636 85.798 16.5522 86.0578 16.9293C86.3177 17.2981 86.4476 17.7717 86.4476 18.35ZM78.2001 17.9728V27.8044H80.614V17.5705C80.614 17.0676 80.5512 16.5941 80.4254 16.1499C80.2997 15.7056 80.0357 15.2572 79.6334 14.8046H77.823C77.9655 15.3913 78.0619 15.9487 78.1121 16.4767C78.1708 17.0048 78.2001 17.5035 78.2001 17.9728ZM98.0318 28.0558C97.1098 28.0558 96.2717 27.884 95.5173 27.5404C94.7714 27.1967 94.1302 26.719 93.5938 26.1071C93.0657 25.4869 92.6592 24.7619 92.3742 23.9321C92.0893 23.094 91.9468 22.1804 91.9468 21.1913C91.9468 19.8335 92.194 18.6601 92.6886 17.6711C93.1914 16.6737 93.9039 15.9068 94.8258 15.3704C95.7478 14.8256 96.8416 14.5532 98.1072 14.5532C98.9705 14.5532 99.7332 14.7459 100.395 15.1315C101.058 15.5087 101.59 16.0283 101.992 16.6905C102.403 17.3442 102.654 18.0902 102.746 18.9283C102.847 19.7581 102.759 20.6214 102.482 21.5182H95.1904C95.3664 21.0405 95.6137 20.6424 95.9322 20.3239C96.2591 19.997 96.7243 19.8335 97.3277 19.8335H100.521C100.597 19.1882 100.521 18.6056 100.295 18.086C100.077 17.5579 99.75 17.1389 99.3141 16.8288C98.8867 16.5186 98.4006 16.3636 97.8558 16.3636C97.1517 16.3636 96.5315 16.5522 95.9951 16.9293C95.4586 17.3065 95.0396 17.8597 94.7378 18.5889C94.4361 19.3097 94.2852 20.1856 94.2852 21.2165C94.2852 22.2139 94.457 23.0898 94.8007 23.8441C95.1527 24.5984 95.6305 25.1893 96.2339 25.6168C96.8374 26.0359 97.5205 26.2454 98.2832 26.2454C98.8615 26.2454 99.4105 26.1867 99.9302 26.0694C100.45 25.9437 101.066 25.7006 101.778 25.3402L102.407 26.9997C101.602 27.4104 100.823 27.687 100.068 27.8295C99.3141 27.9804 98.6352 28.0558 98.0318 28.0558ZM105.901 19.2049V27.8044H108.139V20.8645C108.139 19.8587 108.298 19.0457 108.616 18.4254C108.935 17.8052 109.341 17.3526 109.836 17.0676C110.33 16.7827 110.837 16.6402 111.357 16.6402C111.508 16.6402 111.68 16.6486 111.873 16.6653C112.074 16.6821 112.304 16.724 112.564 16.791L112.866 14.8298C112.639 14.7627 112.426 14.7124 112.225 14.6789C112.023 14.6454 111.826 14.6286 111.634 14.6286C110.955 14.6286 110.309 14.834 109.697 15.2446C109.086 15.647 108.616 16.1708 108.289 16.8162L108.088 17.2688V16.8162C108.013 16.4139 107.916 16.0493 107.799 15.7224C107.69 15.3871 107.502 15.0812 107.233 14.8046H105.498C105.641 15.3913 105.741 16.0786 105.8 16.8665C105.867 17.6543 105.901 18.4338 105.901 19.2049ZM118.313 27.8044L113.435 14.8046H115.949L119.419 24.9379L119.62 25.5665L119.796 24.9379L123.241 14.8046H125.655L120.777 27.8044H118.313ZM128.613 27.5906C129.25 27.9008 130.004 28.0558 130.876 28.0558C131.479 28.0558 132.053 27.9594 132.598 27.7667C133.143 27.5739 133.734 27.159 134.371 26.522L134.647 26.0694L134.672 26.522C134.773 26.7818 134.89 27.0249 135.024 27.2512C135.158 27.4775 135.343 27.6619 135.578 27.8044H137.287C137.178 27.3602 137.082 26.786 136.998 26.082C136.923 25.3695 136.885 24.5104 136.885 23.5046V19.909C136.885 18.2075 136.441 16.8916 135.552 15.9613C134.664 15.0225 133.415 14.5532 131.806 14.5532C131.253 14.5532 130.662 14.6076 130.033 14.7166C129.405 14.8256 128.68 15.0561 127.858 15.4081L128.437 16.9671C129.04 16.7491 129.564 16.5941 130.008 16.5019C130.452 16.4097 130.901 16.3636 131.353 16.3636C132.502 16.3636 133.315 16.6779 133.792 17.3065C134.278 17.9267 134.521 18.7356 134.521 19.733V24.435C134.035 25.072 133.503 25.533 132.925 25.818C132.346 26.1029 131.772 26.2454 131.202 26.2454C130.565 26.2454 130.063 26.0568 129.694 25.6797C129.325 25.2941 129.141 24.8457 129.141 24.3344C129.141 24.0243 129.208 23.7268 129.342 23.4418C129.484 23.1484 129.744 22.8886 130.121 22.6623C130.507 22.436 131.068 22.2642 131.806 22.1468C132.25 22.0798 132.598 21.9289 132.849 21.6942C133.101 21.4596 133.281 21.2039 133.39 20.9273C133.507 20.6507 133.583 20.4119 133.616 20.2107C131.898 20.4119 130.528 20.6843 129.505 21.0279C128.491 21.3715 127.762 21.8242 127.318 22.3857C126.873 22.9389 126.651 23.6388 126.651 24.4853C126.651 25.1642 126.819 25.7719 127.154 26.3083C127.498 26.8447 127.984 27.2721 128.613 27.5906ZM166.552 27.5906C167.189 27.9008 167.944 28.0558 168.815 28.0558C169.419 28.0558 169.993 27.9594 170.538 27.7667C171.082 27.5739 171.673 27.159 172.31 26.522L172.587 26.0694L172.612 26.522C172.713 26.7818 172.83 27.0249 172.964 27.2512C173.098 27.4775 173.283 27.6619 173.517 27.8044H175.227C175.118 27.3602 175.022 26.786 174.938 26.082C174.863 25.3695 174.825 24.5104 174.825 23.5046V19.909C174.825 18.2075 174.381 16.8916 173.492 15.9613C172.604 15.0225 171.355 14.5532 169.746 14.5532C169.192 14.5532 168.602 14.6076 167.973 14.7166C167.344 14.8256 166.619 15.0561 165.798 15.4081L166.376 16.9671C166.98 16.7491 167.504 16.5941 167.948 16.5019C168.392 16.4097 168.84 16.3636 169.293 16.3636C170.441 16.3636 171.254 16.6779 171.732 17.3065C172.218 17.9267 172.461 18.7356 172.461 19.733V24.435C171.975 25.072 171.443 25.533 170.865 25.818C170.286 26.1029 169.712 26.2454 169.142 26.2454C168.505 26.2454 168.002 26.0568 167.633 25.6797C167.265 25.2941 167.08 24.8457 167.08 24.3344C167.08 24.0243 167.147 23.7268 167.281 23.4418C167.424 23.1484 167.684 22.8886 168.061 22.6623C168.446 22.436 169.008 22.2642 169.746 22.1468C170.19 22.0798 170.538 21.9289 170.789 21.6942C171.041 21.4596 171.221 21.2039 171.33 20.9273C171.447 20.6507 171.523 20.4119 171.556 20.2107C169.838 20.4119 168.467 20.6843 167.445 21.0279C166.431 21.3715 165.702 21.8242 165.257 22.3857C164.813 22.9389 164.591 23.6388 164.591 24.4853C164.591 25.1642 164.759 25.7719 165.094 26.3083C165.438 26.8447 165.924 27.2721 166.552 27.5906ZM183.005 28.081C181.639 28.081 180.587 27.6326 179.85 26.7357C179.121 25.8389 178.756 24.5942 178.756 23.0018V16.5396H176.443V15.4081L178.756 14.8046V11.4855L180.969 10.7815V23.2783C180.969 24.1416 181.153 24.8666 181.522 25.4534C181.899 26.0317 182.394 26.3208 183.005 26.3208C183.332 26.3208 183.647 26.2915 183.948 26.2328C184.259 26.1742 184.632 26.0778 185.067 25.9437L185.621 27.5278C184.984 27.7373 184.489 27.8798 184.137 27.9552C183.785 28.0391 183.408 28.081 183.005 28.081ZM183.986 16.5396C183.592 16.5396 183.257 16.4642 182.98 16.3133C182.712 16.154 182.486 15.9445 182.301 15.6847C182.125 15.4165 181.983 15.1231 181.874 14.8046H185.419V16.5396H183.986ZM191.373 27.5404C192.127 27.884 192.966 28.0558 193.888 28.0558C194.491 28.0558 195.17 27.9804 195.924 27.8295C196.679 27.687 197.458 27.4104 198.263 26.9997L197.634 25.3402C196.922 25.7006 196.306 25.9437 195.786 26.0694C195.266 26.1867 194.717 26.2454 194.139 26.2454C193.376 26.2454 192.693 26.0359 192.09 25.6168C191.486 25.1893 191.009 24.5984 190.657 23.8441C190.313 23.0898 190.141 22.2139 190.141 21.2165C190.141 20.1856 190.292 19.3097 190.594 18.5889C190.895 17.8597 191.314 17.3065 191.851 16.9293C192.387 16.5522 193.008 16.3636 193.712 16.3636C194.256 16.3636 194.743 16.5186 195.17 16.8288C195.606 17.1389 195.933 17.5579 196.151 18.086C196.377 18.6056 196.452 19.1882 196.377 19.8335H193.184C192.58 19.8335 192.115 19.997 191.788 20.3239C191.47 20.6424 191.222 21.0405 191.046 21.5182H198.338C198.615 20.6214 198.703 19.7581 198.602 18.9283C198.51 18.0902 198.259 17.3442 197.848 16.6905C197.446 16.0283 196.913 15.5087 196.251 15.1315C195.589 14.7459 194.826 14.5532 193.963 14.5532C192.697 14.5532 191.604 14.8256 190.682 15.3704C189.76 15.9068 189.047 16.6737 188.544 17.6711C188.05 18.6601 187.803 19.8335 187.803 21.1913C187.803 22.1804 187.945 23.094 188.23 23.9321C188.515 24.7619 188.922 25.4869 189.45 26.1071C189.986 26.719 190.627 27.1967 191.373 27.5404Z" fill="url(#paint0_linear_5481_57456)"/>
</g>
<defs>
<linearGradient id="paint0_linear_5481_57456" x1="44.1709" y1="24.3617" x2="173.555" y2="-53.0249" gradientUnits="userSpaceOnUse">
<stop stop-color="#082B60"/>
<stop offset="0.552083" stop-color="#051041"/>
</linearGradient>
<clipPath id="clip0_5481_57456">
<rect width="200" height="33.1551" fill="white" transform="translate(0 0.871826)"/>
</clipPath>
</defs>
</svg>
