<svg width="200" height="56" viewBox="0 0 200 56" fill="none" xmlns="http://www.w3.org/2000/svg">
<g clip-path="url(#clip0_5481_57479)">
<path d="M0 29.1092V14.5705V0.0268555H26.9062V4.55404C26.9062 8.32423 26.8916 9.15937 26.833 9.52562C26.7939 9.76491 26.7304 10.0629 26.6865 10.1849C26.6474 10.307 26.5595 10.4584 26.4911 10.5268C26.374 10.644 26.3593 10.644 26.1591 10.5805C26.0468 10.5463 25.8661 10.4584 25.7587 10.39C25.6512 10.3217 25.4413 10.1654 25.2948 10.0384C25.1483 9.91146 24.8748 9.70634 24.6844 9.57934C24.4939 9.45726 24.1423 9.26679 23.9031 9.16422C23.6638 9.05679 23.2878 8.93472 23.0729 8.89075C22.8581 8.84193 22.4723 8.80771 22.2184 8.80286C21.9644 8.80286 21.5884 8.82725 21.3883 8.86147C21.188 8.89564 20.8462 8.99333 20.6314 9.07632C20.4165 9.15937 20.1089 9.30587 19.9477 9.39866C19.7866 9.49634 19.4887 9.74052 19.2836 9.94074C19.0834 10.141 18.8295 10.4389 18.7172 10.6C18.6097 10.7612 18.4437 11.0493 18.3509 11.2349C18.2532 11.4205 18.1214 11.7331 18.0531 11.9186C17.9847 12.1042 17.8919 12.49 17.848 12.7733C17.7845 13.1493 17.7698 13.4228 17.7893 13.7989C17.8089 14.0821 17.8626 14.4875 17.9163 14.7024C17.97 14.9172 18.0823 15.2591 18.1653 15.4593C18.2484 15.6596 18.4339 16.0014 18.5804 16.2163C18.722 16.4312 18.9906 16.7584 19.1762 16.939C19.3569 17.1247 19.6499 17.364 19.8256 17.4812C20.0014 17.5935 20.2846 17.7497 20.4604 17.823C20.6363 17.8963 20.9536 17.9939 21.1685 18.033C21.3834 18.077 21.7691 18.1112 22.023 18.1112C22.277 18.1063 22.6725 18.0721 22.902 18.033C23.1315 17.9939 23.5027 17.8865 23.7322 17.8035C23.9617 17.7156 24.323 17.53 24.5379 17.3884C24.7625 17.2418 25.0653 16.983 25.246 16.7828C25.451 16.5533 25.6512 16.3872 25.8075 16.3091C25.9394 16.2456 26.12 16.1772 26.1981 16.1626C26.2861 16.143 26.4081 16.1577 26.5058 16.1967C26.6165 16.2423 26.7011 16.3303 26.7597 16.4605C26.8134 16.5679 26.872 16.7877 26.8916 16.9488C26.916 17.11 26.9258 19.8937 26.9062 29.036L17.1643 29.0653L16.7737 29.1776C16.5588 29.2411 16.2414 29.3632 16.0656 29.4511C15.8898 29.539 15.6212 29.7294 15.465 29.8711C15.2697 30.0469 15.128 30.2373 15.0255 30.4522C14.8888 30.7306 14.8692 30.8136 14.8692 31.1848C14.8692 31.5267 14.8937 31.6487 14.9962 31.8685C15.0645 32.015 15.1866 32.2348 15.2745 32.3569C15.3575 32.479 15.5382 32.6987 15.6749 32.8453C15.8117 32.9918 15.9972 33.236 16.09 33.3825C16.1779 33.529 16.3049 33.8171 16.3683 34.0173C16.4563 34.3055 16.4807 34.4911 16.4807 34.8964C16.4758 35.292 16.4514 35.4922 16.3635 35.7755C16.3049 35.9757 16.1828 36.2736 16.0998 36.4347C16.0119 36.5959 15.797 36.8743 15.6115 37.055C15.3673 37.304 15.1818 37.4359 14.879 37.5776C14.6593 37.685 14.3663 37.8071 14.2344 37.851C14.0977 37.8998 13.8242 37.9487 13.624 37.9633C13.3506 37.978 13.1553 37.9585 12.8427 37.8803C12.6132 37.8266 12.2665 37.6947 12.0663 37.5971C11.8466 37.4848 11.5633 37.2796 11.3387 37.0697C11.1385 36.8792 10.8943 36.6057 10.7918 36.4592C10.6941 36.3127 10.5672 36.0831 10.5135 35.9464C10.4548 35.8146 10.3816 35.5508 10.3474 35.3604C10.3035 35.1015 10.3035 34.9403 10.3474 34.7011C10.3767 34.5252 10.4548 34.281 10.5232 34.1541C10.5916 34.0222 10.782 33.7292 10.9481 33.4997C11.119 33.2701 11.3826 32.9038 11.5389 32.6841C11.6903 32.4643 11.9051 32.1176 12.0077 31.9173C12.1151 31.7024 12.2177 31.4094 12.2519 31.2092C12.3007 30.9455 12.3007 30.8039 12.2567 30.5743C12.2226 30.4132 12.1493 30.1934 12.0858 30.0859C12.0272 29.9785 11.8368 29.7637 11.6659 29.6074C11.495 29.4511 11.2215 29.2655 11.0603 29.1873C10.8992 29.1092 10.6355 29.0262 10.4744 28.9969C10.3132 28.9676 9.85423 28.9041 9.44891 28.8602C8.95083 28.8016 8.3258 28.7771 7.49565 28.7722C6.82664 28.7722 5.71328 28.8113 5.02967 28.8553C4.34603 28.9041 3.47681 28.9627 3.10081 28.992C2.7248 29.0164 1.87514 29.0555 0 29.1092Z" fill="#39B3ED"/>
<path d="M26.9409 6.64422C26.936 7.87978 26.9311 6.89326 26.9311 4.44656C26.9311 1.99981 26.936 0.98889 26.9409 2.20004C26.9506 3.40632 26.9506 5.40861 26.9409 6.64422Z" fill="#1C68A5" fill-opacity="0.6"/>
<path d="M174.573 41.3525C173.914 41.3525 173.235 41.333 173.059 41.3135C172.844 41.2842 173.323 41.2695 174.524 41.2695C175.701 41.2695 176.214 41.2842 176.038 41.3135C175.891 41.333 175.232 41.3525 174.573 41.3525Z" fill="#1C68A5" fill-opacity="0.6"/>
<path d="M149.986 41.3525C149.479 41.3525 148.951 41.333 148.819 41.3135C148.66 41.2842 149.039 41.2695 149.957 41.2695C150.895 41.2695 151.271 41.2842 151.124 41.3135C151.012 41.3379 150.495 41.3574 149.986 41.3525Z" fill="#1C68A5" fill-opacity="0.6"/>
<path d="M118.662 41.3525C117.948 41.3525 117.245 41.333 117.099 41.3086C116.928 41.2842 117.524 41.2695 118.71 41.2695C120.004 41.2695 120.493 41.2842 120.273 41.3135C120.097 41.3379 119.374 41.3525 118.662 41.3525Z" fill="#1C68A5" fill-opacity="0.6"/>
<path d="M98.5177 41.3525C97.8488 41.3525 97.1553 41.3379 96.9794 41.3135C96.7598 41.2842 97.219 41.2695 98.4397 41.2695C99.5971 41.2695 100.134 41.2842 99.9779 41.3135C99.8462 41.333 99.1917 41.3525 98.5177 41.3525Z" fill="#1C68A5" fill-opacity="0.6"/>
<path d="M83.8583 41.0398C80.9971 41.0301 79.4784 41.0105 79.4636 40.9764C79.4537 40.9421 80.9334 40.9275 83.844 40.9275C87.3254 40.9275 88.2386 40.9421 88.2386 40.9861C88.2386 41.0349 87.3354 41.0447 83.8583 41.0398Z" fill="#1C68A5" fill-opacity="0.6"/>
<path d="M96.3259 34.0076C96.3111 34.0662 96.3064 34.0564 96.3012 33.9832L96.2964 33.8708L107.308 33.8953L101.829 33.905C96.6529 33.9197 96.3454 33.9246 96.3259 34.0076Z" fill="#1C68A5" fill-opacity="0.6"/>
<path d="M74.3703 33.4802C73.6521 33.4802 73.2471 33.4607 73.2471 33.4314C73.2471 33.4021 73.6474 33.3826 74.3456 33.3826C75.0292 33.3826 75.4542 33.4021 75.4689 33.4314C75.4836 33.4656 75.1024 33.4802 74.3703 33.4802Z" fill="#1C68A5" fill-opacity="0.6"/>
<path d="M108.729 32.5032C108.729 31.8732 108.743 31.1797 108.763 30.9648C108.782 30.7499 108.817 30.5888 108.831 30.6083C108.85 30.6278 108.836 30.9551 108.797 31.3408C108.758 31.795 108.743 32.2932 108.763 32.7718C108.782 33.1722 108.807 33.646 108.841 34.1392L108.792 33.895C108.763 33.7632 108.733 33.1332 108.729 32.5032Z" fill="#1C68A5" fill-opacity="0.6"/>
<path d="M88.6732 31.6486C88.7027 31.2726 88.7417 30.8623 88.7612 30.7354C88.7858 30.6084 88.8101 30.5156 88.8201 30.5254C88.8296 30.5351 88.8101 30.8037 88.7759 31.1212C88.7321 31.5167 88.7222 32.0198 88.7464 32.723C88.7612 33.2895 88.7858 33.8609 88.8001 33.9928C88.8201 34.2272 88.8201 34.2321 88.7759 34.0416C88.7516 33.9342 88.7074 33.5044 88.6784 33.0893C88.639 32.5423 88.639 32.1419 88.6732 31.6486Z" fill="#1C68A5" fill-opacity="0.6"/>
<path d="M116.737 32.4788C116.732 31.6974 116.752 30.9111 116.771 30.7207C116.791 30.5302 116.825 30.3935 116.84 30.413C116.859 30.4276 116.845 30.7353 116.806 31.0967C116.761 31.546 116.752 32.0686 116.776 32.7962C116.791 33.3725 116.815 33.9439 116.849 34.2858L116.796 34.0904C116.761 33.9634 116.737 33.3872 116.737 32.4788Z" fill="#1C68A5" fill-opacity="0.6"/>
<path d="M144.498 36.5567C144.463 36.1807 144.444 33.9586 144.444 29.8563V23.7126H152.359L152.379 34.3835L152.496 34.6765C152.559 34.8377 152.692 35.0477 152.789 35.1454C152.911 35.2723 153.053 35.3505 153.258 35.4091C153.468 35.4726 153.634 35.4872 153.844 35.4628C154.005 35.4481 154.235 35.3846 154.352 35.3212C154.469 35.2626 154.625 35.1356 154.699 35.0428C154.772 34.95 154.864 34.8084 154.908 34.7253C154.948 34.6472 155.035 34.4372 155.211 33.944L155.26 23.7371L163.141 23.7126L163.146 40.9521H156.066L156.046 40.7958C156.031 40.7079 155.997 40.029 155.963 39.2916C155.934 38.5542 155.895 37.807 155.846 37.3137L155.729 37.6067C155.66 37.7679 155.514 38.0756 155.392 38.2905C155.275 38.5053 155.075 38.8228 154.952 38.9986C154.825 39.1744 154.572 39.4723 154.381 39.6628C154.196 39.8532 153.898 40.1121 153.722 40.2391C153.546 40.366 153.185 40.576 152.916 40.7079C152.647 40.8397 152.218 41.0009 151.964 41.0741C151.71 41.1474 151.324 41.2255 151.109 41.25C150.894 41.2744 150.391 41.2939 149.986 41.2939C149.586 41.2939 149.053 41.2695 148.814 41.2451C148.575 41.2207 148.145 41.1327 147.862 41.0498C147.579 40.9667 147.208 40.8348 147.032 40.7519C146.856 40.6688 146.582 40.5077 146.421 40.3904C146.26 40.2781 146.006 40.0535 145.855 39.8972C145.703 39.736 145.484 39.4576 145.362 39.2672C145.24 39.0816 145.074 38.7739 144.99 38.5835C144.908 38.3979 144.776 37.9877 144.698 37.68C144.614 37.3723 144.527 36.8644 144.498 36.5567Z" fill="#1D68A5"/>
<path d="M155.177 28.6304C155.172 25.9346 155.187 23.7126 155.211 23.6979C155.235 23.6784 157.047 23.6686 163.219 23.6881V41.0252L156.017 41.0497L155.997 40.9178C155.982 40.8397 155.948 40.2096 155.914 39.5113C155.885 38.8129 155.87 38.1438 155.875 38.0218C155.885 37.8997 155.924 38.4369 155.958 39.2183C155.992 39.9997 156.031 40.7078 156.066 40.952H163.146V23.7126L155.26 23.737L155.235 28.8404C155.211 33.392 155.201 33.9683 155.128 34.1636C155.084 34.2858 155.05 34.359 155.045 34.3346C155.04 34.3101 155.074 34.1148 155.114 33.9097C155.177 33.5825 155.187 32.806 155.177 28.6304Z" fill="#1C68A5" fill-opacity="0.6"/>
<path d="M144.434 36.5323C144.419 36.4005 144.4 33.4459 144.4 29.9784L144.395 23.6638H152.408L152.423 28.9773C152.432 31.8977 152.452 34.364 152.471 34.4568C152.501 34.6179 152.501 34.6228 152.442 34.5056C152.393 34.4079 152.374 33.2359 152.355 23.7127H144.444L144.458 30.2471C144.463 33.8366 144.453 36.6691 144.434 36.5323Z" fill="#1C68A5" fill-opacity="0.6"/>
<path d="M129.071 32.4056C129.067 27.6636 129.071 23.7566 129.086 23.7273C129.101 23.6785 129.868 23.6638 136.264 23.6638L136.299 23.8445C136.318 23.9471 136.333 24.3183 136.323 25.2999L136.284 24.665C136.269 24.3183 136.25 23.9569 136.24 23.7127H129.159V40.9521H137.021L137.036 36.547C137.045 33.8854 137.07 32.0833 137.094 32.0052C137.129 31.9173 137.139 33.4556 137.129 36.4005C137.124 38.8912 137.109 40.957 137.094 40.9863C137.075 41.0351 136.235 41.0449 129.086 41.0254L129.071 32.4056Z" fill="#1C68A5" fill-opacity="0.6"/>
<path d="M140.317 23.5222C140.557 23.4685 140.845 23.4148 140.953 23.405C141.06 23.3903 141.402 23.3854 141.709 23.3952C142.022 23.405 142.412 23.4489 142.588 23.4929C142.764 23.5368 142.988 23.6199 143.086 23.6687C143.252 23.7517 143.272 23.781 143.272 23.9471C143.272 24.0447 143.218 24.6552 143.15 25.2998C143.082 25.9445 142.959 27.0873 142.881 27.8394C142.803 28.5915 142.725 29.3826 142.71 29.5975C142.691 29.8124 142.671 30.0272 142.657 30.0761C142.642 30.1396 142.618 30.1494 142.539 30.1103C142.486 30.0859 142.217 30.0175 141.944 29.9589C141.641 29.9003 141.157 29.8466 140.732 29.8319C140.132 29.8124 139.946 29.8221 139.512 29.9101C139.165 29.9833 138.858 30.0859 138.56 30.2275C138.306 30.3496 138.008 30.54 137.857 30.6768C137.71 30.8087 137.534 31.004 137.456 31.1115C137.383 31.2189 137.275 31.4484 137.217 31.6242C137.163 31.8 137.095 32.0735 137.07 32.2347C137.041 32.4056 137.021 34.2712 137.021 40.9521H129.16V23.7127H132.7C134.648 23.7127 136.24 23.7273 136.24 23.7517C136.24 23.7713 136.284 24.7089 136.338 25.8371C136.392 26.9652 136.435 27.9224 136.44 27.9614C136.44 28.0005 136.514 27.8149 136.606 27.5464C136.694 27.2778 136.86 26.848 136.978 26.594C137.09 26.3401 137.256 26.008 137.344 25.8615C137.427 25.715 137.632 25.4171 137.788 25.2022C137.949 24.9873 138.218 24.6796 138.394 24.5233C138.564 24.3671 138.828 24.1571 138.975 24.0643C139.121 23.9715 139.385 23.8298 139.561 23.7566C139.737 23.6833 140.078 23.5759 140.317 23.5222Z" fill="#1D68A5"/>
<path d="M116.634 23.4976C117.01 23.4536 117.406 23.4097 117.513 23.3999C117.621 23.3901 118.148 23.3901 118.685 23.3999C119.223 23.4097 120.023 23.4634 120.468 23.5171C120.912 23.566 121.513 23.6685 121.81 23.7369C122.108 23.8053 122.548 23.9322 122.787 24.0153C123.026 24.0934 123.51 24.2985 123.861 24.4694C124.213 24.6403 124.652 24.8797 124.838 25.0066C125.024 25.1336 125.321 25.3583 125.497 25.5048C125.673 25.6513 125.932 25.9052 126.073 26.0713C126.215 26.2373 126.43 26.5157 126.542 26.6915C126.659 26.8673 126.821 27.1408 126.899 27.302C126.982 27.4631 127.113 27.805 127.197 28.0589C127.275 28.3129 127.358 28.6841 127.402 29.231L127.099 29.3238C126.928 29.3775 126.552 29.485 126.254 29.5729C125.956 29.6559 125.497 29.7878 125.229 29.8708C124.96 29.9489 124.555 30.0661 124.325 30.1345C124.096 30.2029 123.69 30.3201 123.422 30.3982C123.153 30.4764 122.733 30.5985 122.494 30.6668C122.26 30.7384 121.854 30.8567 121.585 30.935L121.566 30.9403C121.298 31.0185 120.868 31.1454 120.14 31.3554L120.101 30.8426C120.082 30.5594 120.028 30.1784 119.979 29.988C119.93 29.7975 119.838 29.5338 119.774 29.402C119.706 29.2652 119.569 29.0845 119.472 28.9966C119.369 28.9038 119.178 28.8062 119.012 28.7622C118.812 28.7036 118.651 28.6938 118.441 28.7182C118.28 28.7378 118.026 28.7964 117.88 28.855C117.733 28.9087 117.533 29.0259 117.44 29.1138C117.347 29.1969 117.206 29.3873 117.128 29.5289C117.049 29.6754 116.942 29.9441 116.898 30.1345C116.849 30.325 116.781 30.6961 116.752 30.9648C116.717 31.2675 116.703 31.9171 116.717 32.674C116.737 33.724 116.756 33.9584 116.849 34.3589C116.913 34.6128 117.035 34.9547 117.122 35.1159C117.21 35.277 117.372 35.4919 117.484 35.5896C117.592 35.6922 117.767 35.8094 117.865 35.8533C117.968 35.8973 118.25 35.9461 118.49 35.9608C118.793 35.9803 119.002 35.9656 119.174 35.9168C119.31 35.8777 119.481 35.78 119.574 35.6873C119.662 35.6043 119.813 35.3698 119.906 35.1745C119.999 34.984 120.111 34.6519 120.15 34.4419C120.189 34.2368 120.224 33.9878 120.224 33.895C120.224 33.8022 120.233 33.724 120.248 33.724C120.263 33.724 120.839 33.8998 121.527 34.1196C122.221 34.3345 123.026 34.5885 123.324 34.6763C123.622 34.7691 124.638 35.0866 125.58 35.3845C126.528 35.6775 127.314 35.9217 127.328 35.9217C127.343 35.9217 127.338 36.0487 127.323 36.2001C127.304 36.3564 127.241 36.664 127.177 36.8838C127.113 37.1084 127.001 37.4063 126.933 37.5431C126.865 37.6847 126.704 37.9533 126.581 38.1437C126.455 38.3342 126.186 38.6517 125.985 38.8519C125.78 39.0521 125.414 39.3598 125.165 39.5356C124.916 39.7114 124.511 39.9605 124.262 40.0875C124.018 40.2193 123.627 40.4 123.398 40.4977C123.168 40.5905 122.782 40.7321 122.543 40.8054C122.304 40.8786 121.82 41.0007 121.469 41.0691C121.117 41.1424 120.58 41.2205 120.272 41.2449C119.965 41.2693 119.262 41.2938 118.71 41.2938C118.158 41.2938 117.445 41.2693 117.122 41.2449C116.8 41.2205 116.209 41.1326 115.804 41.0496C115.404 40.9665 114.862 40.8347 114.608 40.7517C114.354 40.6735 113.978 40.5417 113.777 40.4586C113.577 40.3805 113.197 40.1998 112.938 40.0582C112.674 39.9165 112.259 39.6626 112.015 39.4868C111.766 39.311 111.365 38.974 111.121 38.7298C110.877 38.4856 110.574 38.1584 110.452 37.9972C110.33 37.8361 110.145 37.5724 110.042 37.4112C109.939 37.2501 109.764 36.9424 109.661 36.7275C109.554 36.5126 109.402 36.161 109.324 35.9461C109.246 35.7312 109.119 35.3015 109.041 34.9938C108.963 34.6812 108.865 34.1001 108.821 33.6752C108.782 33.2601 108.748 32.6643 108.748 32.3566C108.748 32.0489 108.782 31.4531 108.821 31.038C108.865 30.6082 108.963 30.0271 109.046 29.695C109.129 29.3726 109.256 28.9429 109.334 28.7427C109.412 28.5424 109.544 28.225 109.632 28.0345C109.715 27.8441 109.925 27.4827 110.091 27.2287C110.257 26.9748 110.545 26.589 110.73 26.3741C110.921 26.1592 111.258 25.8222 111.488 25.6269C111.712 25.4315 112.039 25.1776 112.215 25.0604C112.391 24.9431 112.708 24.7527 112.923 24.6355C113.138 24.5183 113.48 24.3522 113.68 24.2643C113.88 24.1813 114.202 24.0543 114.388 23.9859C114.574 23.9176 115.003 23.8004 115.34 23.7174C115.677 23.6392 116.258 23.5366 116.634 23.4976Z" fill="#1D68A5"/>
<path fill-rule="evenodd" clip-rule="evenodd" d="M98.5182 23.3999C99.0017 23.4097 99.7147 23.4585 100.105 23.5122C100.496 23.5611 101.043 23.6636 101.326 23.7369C101.609 23.8102 102.014 23.9371 102.229 24.0153C102.444 24.0934 102.874 24.2838 103.182 24.4401C103.489 24.5964 103.943 24.8552 104.183 25.0164C104.422 25.1776 104.764 25.4413 104.94 25.6024C105.116 25.7636 105.413 26.0811 105.604 26.3057C105.799 26.5304 106.063 26.8917 106.195 27.1066C106.326 27.3215 106.522 27.6927 106.634 27.9369C106.741 28.181 106.878 28.4985 106.932 28.645C106.986 28.7915 107.093 29.1431 107.161 29.4264C107.235 29.7096 107.323 30.2371 107.362 30.5985C107.396 30.9599 107.43 31.4531 107.43 31.6973C107.43 31.9415 107.406 32.4347 107.376 32.7961C107.352 33.1575 107.318 33.5482 107.284 33.8705H96.2964L96.3259 34.1001C96.3402 34.2319 96.3744 34.4126 96.3939 34.5054C96.4186 34.5982 96.5013 34.818 96.5797 34.9938C96.6677 35.1891 96.8141 35.4089 96.9705 35.5652C97.1606 35.7605 97.2875 35.8436 97.4829 35.8973C97.6198 35.9412 97.8931 35.995 98.079 36.0242C98.2644 36.0584 98.6161 36.0682 98.86 36.0536C99.1043 36.0389 99.4218 35.9852 99.5683 35.9363C99.7194 35.8875 99.9248 35.78 100.032 35.7019C100.14 35.6238 100.301 35.4577 100.398 35.3356C100.496 35.2135 100.618 34.9987 100.667 34.8522C100.75 34.6373 100.779 34.5982 100.862 34.6177C100.916 34.6275 101.223 34.7105 101.546 34.7984C101.868 34.8864 102.317 35.0084 102.547 35.067C102.776 35.1305 103.26 35.2624 103.621 35.3601C103.982 35.4577 104.49 35.5945 104.744 35.6628C104.998 35.7312 105.438 35.8533 105.721 35.9266C106.004 36.0047 106.429 36.117 107.098 36.288L107.069 36.4833C107.054 36.5907 106.976 36.8447 106.898 37.0449C106.82 37.2452 106.693 37.5187 106.62 37.6554C106.546 37.7872 106.371 38.051 106.229 38.2414C106.092 38.4319 105.838 38.7201 105.667 38.891C105.496 39.0619 105.155 39.3403 104.915 39.5112C104.676 39.6821 104.246 39.941 103.963 40.0924C103.68 40.2389 103.275 40.4245 103.06 40.5075C102.845 40.5856 102.493 40.7077 102.278 40.7761C102.063 40.8445 101.58 40.9665 101.204 41.0447C100.828 41.1277 100.281 41.2156 99.9832 41.24C99.6904 41.2693 99.0164 41.2938 98.494 41.2938C97.9715 41.2938 97.2828 41.2693 96.9705 41.2449C96.6529 41.2156 96.1011 41.1375 95.7493 41.0691C95.3933 41.0007 94.8561 40.8689 94.5628 40.7761C94.27 40.6833 93.884 40.5514 93.7082 40.4831C93.5327 40.4147 93.181 40.2486 92.9271 40.1119C92.6733 39.9752 92.3216 39.7651 92.1457 39.6431C91.9698 39.5259 91.7307 39.3451 91.6085 39.2475C91.4916 39.1498 91.1983 38.8763 90.9592 38.6321C90.7197 38.3879 90.3731 37.9631 90.1825 37.6798C89.9923 37.3966 89.7433 36.9766 89.6259 36.7373C89.5089 36.5029 89.3673 36.1854 89.3088 36.0291C89.2499 35.8777 89.1329 35.4773 89.0402 35.1403C88.9423 34.774 88.8448 34.2563 88.8007 33.8461C88.7617 33.4701 88.7274 32.7864 88.7274 32.3322C88.7274 31.8731 88.7617 31.2089 88.8007 30.8524C88.8396 30.5008 88.9423 29.9489 89.0207 29.6315C89.1035 29.3189 89.2356 28.8941 89.3135 28.6938C89.3915 28.4936 89.5137 28.1957 89.5869 28.0345C89.6601 27.8734 89.7775 27.6536 89.8407 27.5462C89.9092 27.4387 90.0214 27.2629 90.0898 27.1554C90.1582 27.048 90.3636 26.7843 90.539 26.5694C90.7197 26.3545 91.0177 26.0322 91.2031 25.8564C91.3841 25.6806 91.677 25.4266 91.8477 25.2948C92.0188 25.1629 92.2726 24.9871 92.4095 24.8992C92.5459 24.8113 92.9124 24.6208 93.22 24.4646C93.5275 24.3132 93.9915 24.1178 94.2453 24.025C94.4996 23.9371 94.9731 23.8004 95.2953 23.7174C95.6176 23.6392 96.189 23.5415 96.565 23.4976C96.941 23.4536 97.3365 23.4097 97.4439 23.3999C97.5514 23.3901 98.0348 23.3901 98.5182 23.3999ZM97.2876 28.8843C97.1853 28.9331 97.0289 29.0552 96.9458 29.1529C96.8578 29.2506 96.7456 29.4117 96.6919 29.5094C96.643 29.612 96.555 29.861 96.4966 30.0613C96.4429 30.2615 96.3796 30.5301 96.3601 30.6571L96.3207 30.8915H99.959C99.9248 30.7206 99.8905 30.5106 99.8611 30.3152C99.8368 30.1247 99.7489 29.7927 99.6657 29.5826C99.5683 29.3287 99.4608 29.148 99.3387 29.0259C99.2213 28.9136 99.0406 28.811 98.8505 28.7476C98.6698 28.6889 98.4255 28.645 98.2644 28.6499C98.108 28.6499 97.8641 28.6841 97.7272 28.7231C97.5856 28.7622 97.3855 28.8306 97.2876 28.8843Z" fill="#1D68A5"/>
<path d="M99.9579 30.8915L99.9284 30.662C99.9089 30.5301 99.9089 30.4373 99.9189 30.452C99.9336 30.4666 99.9579 30.5789 100.007 30.9403L96.2711 30.9159L99.9579 30.8915Z" fill="#1C68A5" fill-opacity="0.6"/>
<path d="M167.248 23.6637V21.8568C167.248 20.8605 167.258 20.0498 167.272 20.0498C167.287 20.0498 167.297 20.8751 167.297 23.7126H164.66V29.0358H167.297L167.272 35.6532L167.248 29.0846H164.611V23.6637H167.248Z" fill="#1C68A5" fill-opacity="0.6"/>
<path fill-rule="evenodd" clip-rule="evenodd" d="M65.3903 18.1892L72.2121 18.2087C78.1644 18.2234 79.117 18.2332 79.6931 18.3064C80.0544 18.3504 80.6063 18.4432 80.9138 18.5115C81.2214 18.5848 81.6758 18.7069 81.9149 18.7802C82.1592 18.8583 82.5205 18.9901 82.7206 19.0732C82.9208 19.1611 83.1846 19.2881 83.3067 19.3564C83.4284 19.4248 83.6385 19.5469 83.7707 19.625C83.9071 19.708 84.1904 19.9131 84.4053 20.0743C84.6201 20.2404 84.9719 20.5627 85.1867 20.7922C85.4016 21.0168 85.6992 21.388 85.8508 21.6175C86.002 21.8422 86.1926 22.1694 86.2757 22.3452C86.3585 22.521 86.4954 22.8629 86.5833 23.1022C86.666 23.3464 86.7787 23.8055 86.8324 24.1278C86.9104 24.5624 86.9346 24.9189 86.9346 25.5196C86.9298 26.091 86.9004 26.5159 86.8272 26.9847C86.7687 27.3461 86.6565 27.8638 86.5733 28.1324C86.4906 28.401 86.3147 28.8405 86.1826 29.1092C86.0509 29.3777 85.8018 29.7831 85.6312 30.0126C85.4601 30.2421 85.1477 30.5938 84.9325 30.794C84.7228 30.9942 84.3516 31.2921 84.1124 31.4533C83.8681 31.6194 83.4484 31.8586 83.1698 31.9905C82.8965 32.1273 82.6717 32.2493 82.6717 32.2738C82.6717 32.2933 82.7354 32.4007 82.8133 32.518C82.8865 32.6303 83.2625 33.2163 83.6485 33.8219C84.0293 34.4275 84.42 35.0428 84.5175 35.1893C84.6102 35.3358 84.7813 35.5996 84.8935 35.7754C85.0061 35.9512 85.2647 36.3565 85.47 36.6789C85.6749 37.0012 85.963 37.4505 86.1094 37.68C86.2558 37.9095 86.5344 38.3491 86.7297 38.6567C86.9251 38.9644 87.2032 39.4039 87.35 39.6335C87.4964 39.863 87.7308 40.2244 87.8725 40.4393C88.0089 40.6542 88.1358 40.8593 88.1558 40.8935C88.1848 40.9374 87.3058 40.9521 79.4977 40.9521L79.3804 40.747C79.3171 40.6298 79.117 40.2537 78.9363 39.9021C78.7553 39.5553 78.5699 39.2037 78.5209 39.1207C78.4724 39.0426 78.2281 38.5884 77.979 38.1196C77.7299 37.6507 77.4566 37.133 77.3734 36.9719C77.2855 36.8107 77.0901 36.4347 76.9342 36.1416C76.7778 35.8486 76.6362 35.58 76.6167 35.5556C76.5972 35.5312 76.4165 35.1893 76.2112 34.7987C76.0063 34.4079 75.7572 33.9391 75.4692 33.4068L73.2474 33.3824V40.9521H65.3856L65.3903 18.1892ZM73.2474 28.108C76.1575 28.108 76.8363 28.0836 77.1538 28.0396C77.4224 28.0006 77.7347 27.9175 77.901 27.8443C78.0522 27.7759 78.2476 27.6538 78.3308 27.5805C78.4135 27.5073 78.5357 27.351 78.6041 27.2289C78.6773 27.1068 78.7605 26.8871 78.7947 26.7406C78.8337 26.5941 78.8579 26.2717 78.8579 26.0324C78.8579 25.7882 78.8337 25.4708 78.7947 25.3243C78.7605 25.1778 78.6773 24.9678 78.6089 24.8603C78.5404 24.7529 78.4235 24.6064 78.3455 24.538C78.2671 24.4648 78.1159 24.3524 78.0085 24.284C77.901 24.2157 77.6177 24.1131 77.3734 24.0594C76.9732 23.9666 76.7826 23.9569 75.0932 23.9569H73.2474V28.108Z" fill="#1D68A5"/>
<path d="M75.1866 28.1127C76.2656 28.098 77.164 28.0688 77.1835 28.0492C77.203 28.0248 77.2862 28.0101 77.5206 28.0199L77.3499 28.0688C77.2472 28.1029 76.3973 28.1273 73.2234 28.142L75.1866 28.1127Z" fill="#1C68A5" fill-opacity="0.6"/>
<path d="M65.3609 41.0253L65.3514 29.5828L65.3414 18.1404L72.2611 18.1599C77.9011 18.1697 79.273 18.1892 79.6685 18.2429C79.9371 18.282 80.1129 18.3211 80.0592 18.3308C80.0055 18.3406 79.7664 18.3211 79.5221 18.2869C79.1998 18.2429 77.2613 18.2234 65.3852 18.1941V40.9521H69.3163C71.9046 40.9521 73.2474 40.9667 73.2474 41.0009C73.2474 41.0351 71.9093 41.0449 65.3609 41.0253Z" fill="#1C68A5" fill-opacity="0.6"/>
<path d="M173.938 18.2185C174.299 18.1209 174.729 17.9988 174.89 17.9548L175.183 17.8718L175.207 23.7127H179.554V29.0359L175.232 29.0603L175.217 31.5511C175.207 33.021 175.222 34.1931 175.252 34.408C175.281 34.6082 175.334 34.8817 175.373 35.0185C175.418 35.1503 175.505 35.3505 175.574 35.458C175.642 35.5654 175.794 35.7168 175.906 35.7901C176.018 35.8633 176.253 35.9708 176.428 36.0245C176.682 36.1075 176.873 36.1271 177.405 36.1271C177.825 36.1271 178.206 36.0977 178.455 36.044C178.67 36.0001 178.977 35.9122 179.139 35.8438C179.3 35.7803 179.441 35.7266 179.456 35.7266C179.47 35.7266 179.495 35.9757 179.515 36.2736C179.534 36.5764 179.607 37.4945 179.676 38.3149C179.749 39.1354 179.798 39.8924 179.788 39.9998C179.774 40.1927 179.768 40.1952 179.35 40.402L179.334 40.4101C179.094 40.5321 178.684 40.6884 178.43 40.7666C178.176 40.8447 177.639 40.9766 177.234 41.0547C176.834 41.1377 176.282 41.2208 176.013 41.2451C175.745 41.2696 175.105 41.2891 174.597 41.2891C174.089 41.2891 173.406 41.2696 173.084 41.2451C172.761 41.2208 172.19 41.1328 171.814 41.0547C171.438 40.9717 170.974 40.8545 170.788 40.791C170.603 40.7226 170.29 40.5956 170.105 40.5028C169.919 40.4101 169.621 40.2391 169.445 40.1219C169.269 40.0047 168.972 39.7556 168.786 39.5652C168.596 39.3747 168.332 39.0524 168.2 38.8522C168.068 38.6519 167.883 38.3003 167.795 38.0707C167.702 37.8412 167.575 37.4261 167.512 37.1429C167.448 36.8596 167.375 36.3859 167.346 36.0929C167.316 35.7852 167.297 34.1589 167.297 29.0359H164.66V23.7127H167.297V20.05L167.429 20.0206C167.507 20.006 167.785 19.9327 168.054 19.8595C168.322 19.7813 168.796 19.6495 169.103 19.5665C169.411 19.4785 169.851 19.3565 170.08 19.293C170.31 19.2295 170.725 19.1123 171.008 19.0341C171.291 18.956 171.74 18.829 172.009 18.7558C172.277 18.6825 172.673 18.5702 172.888 18.5116C173.103 18.4481 173.577 18.3162 173.938 18.2185Z" fill="#1D68A5"/>
<path d="M175.208 23.7125L175.213 20.753C175.218 18.7947 175.233 17.8081 175.267 17.8277C175.301 17.8472 175.316 18.8728 175.306 23.6637L179.628 23.6881L179.652 29.0846H175.306L175.301 31.883C175.296 33.7046 175.277 34.5739 175.253 34.3834C175.228 34.2222 175.213 32.9574 175.233 29.0602L179.555 29.0357V23.7125H175.208Z" fill="#1C68A5" fill-opacity="0.6"/>
<path d="M28.3419 9.69655C28.4054 9.2619 28.42 8.48053 28.42 4.60775V0.0268555H56.1074V8.36331C56.1074 12.954 56.0931 19.5176 56.0342 29.1971L54.7892 29.163C54.1056 29.1483 52.0056 29.1239 50.1256 29.1092C48.2455 29.0946 46.4777 29.0604 46.1949 29.0359C45.9116 29.0067 45.5403 28.9481 45.3645 28.8943C45.1886 28.8455 44.9737 28.7722 44.8862 28.7234C44.8031 28.6794 44.7199 28.6013 44.7052 28.5476C44.6909 28.4939 44.7004 28.3669 44.7298 28.2692C44.7541 28.1667 44.8468 27.9762 44.9347 27.8395C45.0179 27.7076 45.1938 27.4732 45.3159 27.3267C45.4377 27.1802 45.594 26.9799 45.6625 26.8872C45.7309 26.7944 45.8431 26.6185 45.9116 26.4965C45.98 26.3744 46.1069 26.1009 46.1949 25.886C46.2828 25.6711 46.3803 25.3342 46.4193 25.1437C46.4582 24.9483 46.4877 24.5576 46.4877 24.2744C46.4877 23.9911 46.4582 23.6004 46.4193 23.41C46.3803 23.2146 46.2876 22.9021 46.2144 22.7116C46.1412 22.5211 45.9848 22.2183 45.8626 22.0279C45.7405 21.8374 45.5109 21.5542 45.345 21.393C45.1791 21.2269 44.8958 20.9877 44.7052 20.8607C44.515 20.7288 44.2417 20.5628 44.0948 20.4895C43.9484 20.4162 43.6603 20.2942 43.4602 20.2209C43.2599 20.1525 42.9083 20.0597 42.6788 20.0207C42.4493 19.9816 42.044 19.9523 41.7755 19.9523C41.5069 19.9523 41.1016 19.9865 40.8721 20.0256C40.6426 20.0646 40.3349 20.1428 40.1884 20.1965C40.0419 20.2551 39.7782 20.3674 39.6024 20.4553C39.4267 20.5432 39.1434 20.719 38.9676 20.8509C38.7918 20.9828 38.5867 21.1488 38.5086 21.2172C38.4354 21.2855 38.2498 21.4907 38.1082 21.6714C37.9617 21.857 37.8445 22.0132 37.8445 22.0279C37.8445 22.0425 37.7908 22.1353 37.7273 22.233C37.6638 22.3355 37.5418 22.6188 37.4636 22.8581C37.3513 23.1804 37.3074 23.4295 37.2829 23.8104C37.2634 24.0937 37.2732 24.5088 37.3025 24.7383C37.3318 24.9679 37.4148 25.3488 37.4929 25.593C37.571 25.8372 37.7078 26.1643 37.7956 26.3255C37.8836 26.4867 38.0008 26.6869 38.0594 26.765C38.1131 26.8432 38.3377 27.0874 38.5574 27.3023C38.7869 27.5318 39.0067 27.8004 39.0848 27.9469C39.1727 28.1227 39.2118 28.2839 39.2118 28.4499C39.2118 28.6794 39.202 28.7039 39.0067 28.8406C38.8895 28.9236 38.6844 29.0116 38.5525 29.0359C38.3963 29.0702 36.5016 29.0799 28.4444 29.0604L28.4346 22.9313C28.4298 16.9781 28.4249 16.7925 28.3272 16.3872C28.2735 16.1577 28.171 15.8598 28.0928 15.723C28.0196 15.5863 27.9024 15.4105 27.834 15.3323C27.7657 15.2542 27.6143 15.1126 27.4922 15.0198C27.3701 14.927 27.1308 14.8 26.9551 14.7414C26.7256 14.6633 26.5302 14.6291 26.247 14.634C25.9736 14.634 25.7587 14.6681 25.5389 14.7414C25.3632 14.8 25.0994 14.9172 24.9529 15.0051C24.8065 15.0881 24.5623 15.2835 24.4158 15.4398C24.2693 15.5961 24.0593 15.8061 23.9519 15.9086C23.8445 16.0112 23.6052 16.1675 23.4148 16.2603C23.2243 16.353 22.9264 16.4654 22.7409 16.5044C22.5602 16.5484 22.233 16.5826 22.0133 16.5826C21.7887 16.5826 21.4761 16.5484 21.315 16.5044C21.1538 16.4605 20.8999 16.353 20.7535 16.2651C20.607 16.1772 20.3579 15.977 20.1968 15.8207C20.0405 15.6596 19.8305 15.3909 19.728 15.2151C19.6254 15.0393 19.4838 14.7121 19.4105 14.4826C19.2983 14.1358 19.2787 13.9796 19.2787 13.5547C19.2787 13.1396 19.3031 12.9637 19.4057 12.6268C19.4789 12.3972 19.5961 12.0993 19.6694 11.9675C19.7377 11.8356 19.8989 11.5817 20.0209 11.4107C20.1431 11.2349 20.3188 11.0298 20.4165 10.9468C20.5142 10.8638 20.7241 10.727 20.8804 10.644C21.0367 10.561 21.3101 10.4535 21.4859 10.4047C21.6861 10.3461 21.9547 10.3168 22.2184 10.3168C22.4919 10.3217 22.7506 10.3608 22.9753 10.4242C23.1657 10.4828 23.4392 10.6 23.5857 10.6879C23.7321 10.771 24.0545 11.0005 24.2937 11.191C24.533 11.3814 24.8309 11.6012 24.9529 11.6794C25.075 11.7624 25.3241 11.8942 25.5145 11.9724C25.8075 12.0944 25.9149 12.114 26.3202 12.114C26.7256 12.114 26.8183 12.0993 27.0527 11.9821C27.1992 11.9089 27.4287 11.7428 27.5606 11.6159C27.712 11.4645 27.8633 11.2398 27.9805 10.9907C28.0831 10.7759 28.1905 10.5121 28.2198 10.4047C28.2442 10.2972 28.3028 9.97981 28.3419 9.69655Z" fill="#ECB855"/>
<path d="M26.9059 29.0316L26.9157 23.2633L26.9303 17.4858L26.9449 23.2242C26.9498 26.3791 26.9449 28.9918 26.9303 29.0211C26.9288 29.0248 26.9216 29.0284 26.9059 29.0316L26.9059 29.0358L26.8798 29.0359C26.6015 29.0718 24.9827 29.0776 17.4081 29.0602L26.8798 29.0359C26.8904 29.0345 26.8989 29.0331 26.9059 29.0316Z" fill="#1C68A5" fill-opacity="0.6"/>
<path d="M40.3351 21.7498C40.589 21.6228 40.9504 21.491 41.1408 21.4519C41.3312 21.4128 41.6047 21.3787 41.7512 21.3787C41.8977 21.3787 42.2151 21.4177 42.4592 21.4666C42.7229 21.5203 43.0452 21.6326 43.265 21.7401C43.4651 21.8426 43.729 21.994 43.8511 22.077C43.9728 22.16 44.1682 22.3261 44.2904 22.4482C44.4125 22.5703 44.5784 22.8047 44.6664 22.961C44.7495 23.1221 44.857 23.3956 44.9007 23.5714C44.9497 23.7521 44.9839 24.0647 44.9839 24.304C44.9839 24.6165 44.9544 24.8119 44.8617 25.0854C44.7933 25.2856 44.6811 25.5493 44.6126 25.6714C44.5442 25.7935 44.3393 26.0768 44.1587 26.3063C43.9728 26.5358 43.7532 26.8191 43.67 26.9412C43.5921 27.0633 43.4504 27.327 43.3577 27.5272C43.2113 27.8642 43.1966 27.9326 43.1917 28.3819C43.1917 28.8116 43.2064 28.8995 43.3235 29.1389C43.3967 29.2854 43.5726 29.5246 43.7142 29.6663C43.8754 29.8323 44.0998 29.9886 44.315 30.0912C44.5052 30.1791 44.8422 30.2963 45.0718 30.35C45.3014 30.4086 45.6822 30.4721 45.9265 30.5014C46.1704 30.5258 47.6596 30.56 49.2468 30.5746C50.834 30.5942 53.0116 30.6186 56.059 30.6772V55.9503H28.469V55.1056C28.469 54.6464 28.4446 53.7623 28.4201 53.142C28.3958 52.5221 28.3371 51.3157 28.2932 50.4562C28.2395 49.4014 28.2199 48.4636 28.2395 47.5747C28.2541 46.7785 28.2981 46.007 28.3469 45.6211C28.4055 45.1771 28.4592 44.9327 28.5325 44.8006C28.5911 44.6984 28.6838 44.6057 28.7376 44.591C28.7961 44.5762 28.9573 44.6252 29.1282 44.7131C29.2894 44.7911 29.7825 45.1233 30.2269 45.4504C30.6713 45.7774 31.184 46.1192 31.3744 46.2072C31.5649 46.3003 31.8677 46.4125 32.0581 46.4562C32.2827 46.51 32.5952 46.5394 32.9615 46.5347C33.3717 46.5347 33.6305 46.5052 33.9137 46.432C34.1286 46.3735 34.4557 46.2561 34.6462 46.1682C34.8366 46.0802 35.1296 45.9096 35.3054 45.7922C35.4812 45.6752 35.7888 45.4114 35.989 45.2061C36.1893 45.006 36.4627 44.6737 36.5945 44.4736C36.7264 44.2734 36.9071 43.9559 36.995 43.7653C37.078 43.5752 37.2001 43.2478 37.2635 43.0329C37.3661 42.6911 37.3808 42.5397 37.3808 41.8608C37.3759 41.1332 37.3661 41.0501 37.2392 40.6643C37.161 40.4348 37.0048 40.0392 36.8826 39.7853C36.7655 39.5313 36.5506 39.17 36.4139 38.9843C36.2723 38.7988 36.0476 38.5448 35.9158 38.4227C35.7791 38.3006 35.5349 38.1102 35.3786 38.0076C35.2175 37.9002 34.9196 37.739 34.7194 37.6462C34.5192 37.5583 34.1774 37.4362 33.9625 37.3776C33.6451 37.2946 33.4352 37.275 32.815 37.2702C32.2339 37.2702 31.9751 37.2897 31.6919 37.363C31.4917 37.4118 31.1743 37.5192 30.9838 37.6023C30.7934 37.6804 30.5004 37.8416 30.3246 37.9588C30.1488 38.0711 29.8656 38.2957 29.6898 38.4569C29.514 38.6132 29.2942 38.7841 29.2015 38.8281C29.1087 38.8769 29.0013 38.9013 28.9671 38.8867C28.9377 38.872 28.8596 38.7646 28.801 38.6474C28.7473 38.535 28.6545 38.2909 28.5959 38.1004C28.5032 37.7732 28.4983 37.6169 28.469 30.5551H33.5084C38.416 30.5551 38.5625 30.5551 38.9433 30.4574C39.1582 30.4037 39.4561 30.3012 39.6026 30.2279C39.7491 30.1547 39.9932 29.9739 40.1446 29.8274C40.3009 29.676 40.4767 29.4368 40.5499 29.2854C40.6183 29.1389 40.7013 28.8604 40.7355 28.6749C40.7794 28.4111 40.7794 28.25 40.7306 27.9667C40.6964 27.747 40.6036 27.4539 40.4962 27.2342C40.3546 26.9412 40.2227 26.7703 39.8321 26.3796C39.5684 26.111 39.295 25.8033 39.2314 25.6958C39.168 25.5884 39.0606 25.3589 38.9922 25.183C38.9189 25.0073 38.8408 24.6898 38.8115 24.4749C38.7822 24.2112 38.7822 23.9621 38.8164 23.7033C38.8554 23.4494 38.9238 23.2149 39.041 22.9854C39.1533 22.7656 39.3291 22.5263 39.5391 22.3114C39.7979 22.0526 39.9737 21.9256 40.3351 21.7498Z" fill="#39B3ED"/>
<path fill-rule="evenodd" clip-rule="evenodd" d="M190.663 23.3999C191.146 23.4097 191.85 23.4634 192.226 23.5122C192.602 23.5611 193.173 23.6734 193.496 23.7564C193.818 23.8345 194.257 23.9713 194.472 24.0494C194.687 24.1276 194.994 24.2546 195.156 24.3278C195.317 24.4011 195.668 24.5866 195.937 24.7331C196.206 24.8845 196.567 25.1141 196.743 25.2459C196.919 25.3778 197.202 25.6073 197.373 25.7587C197.544 25.9101 197.841 26.2178 198.032 26.4473C198.222 26.6769 198.481 27.0138 198.603 27.2043C198.73 27.3899 198.911 27.6976 199.009 27.888C199.106 28.0736 199.258 28.3959 199.336 28.5962C199.419 28.7964 199.551 29.192 199.629 29.4752C199.707 29.7585 199.814 30.2859 199.868 30.6473C199.917 31.0087 199.976 31.5703 199.99 31.8926C200.01 32.2248 200 32.7619 199.97 33.138C199.936 33.4994 199.878 34.0073 199.839 34.2612C199.8 34.5152 199.697 34.9694 199.614 35.2624C199.531 35.5554 199.399 35.951 199.321 36.1415C199.243 36.327 199.072 36.6786 198.945 36.9228C198.818 37.167 198.608 37.504 198.486 37.6798C198.364 37.8556 198.12 38.1682 197.944 38.3733C197.768 38.5833 197.46 38.891 197.265 39.057C197.065 39.228 196.743 39.477 196.543 39.6138C196.342 39.7505 195.995 39.9703 195.766 40.0972C195.537 40.2193 195.17 40.4 194.946 40.4928C194.726 40.5856 194.34 40.7223 194.096 40.8005C193.847 40.8786 193.359 41.0007 193.007 41.074C192.656 41.1424 192.133 41.2205 191.835 41.2498C191.537 41.2742 190.878 41.2938 190.37 41.2938C189.862 41.2938 189.193 41.2693 188.89 41.2449C188.593 41.2156 188.041 41.1326 187.675 41.0496C187.304 40.9714 186.767 40.8298 186.473 40.7321C186.185 40.6393 185.746 40.4684 185.502 40.3512C185.253 40.234 184.891 40.0484 184.706 39.941C184.52 39.8335 184.208 39.6284 184.022 39.4819C183.836 39.3403 183.558 39.1156 183.412 38.9886C183.265 38.8568 182.992 38.5784 182.811 38.3733C182.63 38.1682 182.332 37.7775 182.157 37.5089C181.976 37.2403 181.732 36.8105 181.615 36.5566C181.497 36.3026 181.331 35.8973 181.253 35.6531C181.175 35.4089 181.078 35.0817 181.043 34.9205C181.004 34.7594 180.941 34.4322 180.897 34.188C180.853 33.9438 180.799 33.4408 180.78 33.0647C180.755 32.6887 180.755 32.0489 180.78 31.6484C180.799 31.2431 180.873 30.618 180.941 30.2566C181.009 29.8952 181.141 29.3678 181.239 29.0845C181.331 28.8013 181.531 28.3275 181.673 28.0345C181.82 27.7415 182.025 27.3703 182.128 27.2189C182.23 27.0627 182.489 26.7257 182.704 26.4669C182.919 26.208 183.295 25.8271 183.534 25.6269C183.773 25.4218 184.159 25.1336 184.388 24.9871C184.618 24.8406 185.067 24.5915 185.389 24.4401C185.712 24.2838 186.141 24.1032 186.342 24.0299C186.542 23.9567 186.947 23.8345 187.245 23.7564C187.543 23.6783 188.124 23.5708 188.539 23.5171C188.954 23.4634 189.408 23.4146 189.54 23.3999C189.677 23.3901 190.18 23.3901 190.663 23.3999ZM189.594 28.9966C189.442 29.0992 189.301 29.2555 189.198 29.4264C189.115 29.5729 189.008 29.8366 188.964 30.0124C188.92 30.1882 188.857 30.4715 188.827 30.6473C188.803 30.8231 188.763 31.4141 188.749 31.9659C188.734 32.5764 188.744 33.1966 188.778 33.5531C188.808 33.8754 188.881 34.3247 188.935 34.5542C188.993 34.7838 189.1 35.0768 189.174 35.2135C189.252 35.3454 189.374 35.5163 189.452 35.5896C189.525 35.6628 189.721 35.78 189.882 35.8533C190.116 35.9608 190.228 35.9803 190.443 35.9608C190.59 35.951 190.819 35.8875 190.956 35.824C191.088 35.7605 191.264 35.6433 191.337 35.5603C191.415 35.4773 191.537 35.2721 191.62 35.1012C191.708 34.9156 191.801 34.5738 191.869 34.1977C191.962 33.685 191.977 33.431 191.977 32.3566C191.977 31.2968 191.962 31.0185 191.869 30.5008C191.796 30.0613 191.718 29.7927 191.596 29.5485C191.474 29.2896 191.371 29.1627 191.195 29.0259C191.059 28.9282 190.868 28.8355 190.761 28.8159C190.653 28.8013 190.512 28.7768 190.443 28.7671C190.375 28.7622 190.209 28.7719 190.077 28.7964C189.94 28.8208 189.726 28.9136 189.594 28.9966Z" fill="#1D68A5"/>
<path d="M3.83328 30.5497C4.63899 30.4911 5.69378 30.4227 6.17721 30.4031C6.66065 30.3788 7.54936 30.3739 8.15486 30.3836C8.76041 30.3983 9.42937 30.4325 9.64423 30.4569C9.85909 30.4813 10.113 30.5253 10.2058 30.5497C10.2986 30.5741 10.4548 30.6473 10.5476 30.7108C10.6616 30.7857 10.7137 30.8557 10.7039 30.9208C10.6941 30.9697 10.6355 31.1211 10.5721 31.2578C10.5037 31.3897 10.3083 31.6974 10.1326 31.9415C9.95677 32.1857 9.67355 32.5764 9.50262 32.8206C9.33173 33.0648 9.13151 33.3822 9.05826 33.5287C8.98501 33.6752 8.88248 33.9927 8.83366 34.2368C8.7848 34.481 8.74087 34.8424 8.74087 35.0426C8.74572 35.2429 8.77505 35.575 8.80923 35.7752C8.8483 35.9755 8.94109 36.3173 9.02409 36.5322C9.10708 36.7471 9.31709 37.128 9.48309 37.382C9.66377 37.6506 9.94213 37.9827 10.157 38.1829C10.3572 38.3684 10.6453 38.6029 10.7918 38.7054C10.9383 38.8031 11.1922 38.9545 11.3533 39.0326C11.5145 39.1157 11.8026 39.2378 11.9882 39.3061C12.1737 39.3745 12.5155 39.4575 12.745 39.4868C13.0039 39.5259 13.3652 39.5405 13.6972 39.521C13.9951 39.5015 14.3467 39.4575 14.4786 39.4233C14.6153 39.3843 14.9522 39.2573 15.2355 39.1401C15.5187 39.0229 15.9142 38.8177 16.1144 38.6859C16.3146 38.554 16.6125 38.3147 16.7737 38.1487C16.9348 37.9827 17.1594 37.7189 17.2668 37.5578C17.3743 37.3966 17.5208 37.1524 17.5891 37.0206C17.6575 36.8838 17.7845 36.5566 17.8772 36.288C18.0335 35.8045 18.0384 35.785 18.0384 34.8961C18.0384 33.9976 18.0384 33.9927 17.8772 33.5287C17.7893 33.2748 17.638 32.9231 17.5403 32.7473C17.4475 32.5715 17.3108 32.3518 17.2425 32.259C17.1741 32.1662 16.9934 31.9513 16.8371 31.7804C16.6809 31.6143 16.5197 31.4043 16.4758 31.3164C16.4367 31.2334 16.4123 31.1308 16.4269 31.0967C16.4416 31.0673 16.593 30.9697 16.7639 30.8915C16.9543 30.7987 17.2327 30.7157 17.5306 30.6718C17.9114 30.6131 18.7709 30.5985 26.9062 30.5985V34.1636C26.9062 36.4345 26.9258 37.8654 26.9599 38.1096C26.9892 38.3147 27.0674 38.6517 27.1357 38.852C27.2041 39.0522 27.331 39.3403 27.4238 39.4868C27.5117 39.6333 27.6875 39.858 27.8194 39.9849C27.9463 40.112 28.1856 40.2731 28.3468 40.3464C28.5323 40.4342 28.752 40.488 28.9572 40.5026C29.1964 40.5173 29.3527 40.4978 29.5919 40.4147C29.7677 40.3561 30.0266 40.234 30.1682 40.1412C30.3049 40.0485 30.5735 39.8384 30.7541 39.6724C30.9348 39.5015 31.2181 39.2964 31.3792 39.2085C31.5355 39.1254 31.8089 39.018 31.9847 38.9691C32.1654 38.9252 32.4926 38.8861 32.7416 38.8861C32.9858 38.8861 33.3129 38.9154 33.4741 38.9447C33.6352 38.9789 33.9477 39.0913 34.1724 39.1987C34.4654 39.3403 34.6607 39.477 34.9097 39.7164C35.1832 39.9898 35.2857 40.1363 35.4762 40.5368C35.6031 40.8054 35.7399 41.1766 35.7789 41.3671C35.8278 41.5917 35.8424 41.8261 35.8229 42.0508C35.8033 42.2412 35.7643 42.5049 35.7252 42.6368C35.691 42.7736 35.564 43.0666 35.4469 43.2912C35.315 43.5454 35.1099 43.8382 34.9146 44.0435C34.7388 44.2289 34.4654 44.468 34.3042 44.5707C34.1431 44.6781 33.8256 44.8198 33.5961 44.893C33.2446 45.0004 33.1176 45.0151 32.766 44.9956C32.4486 44.9809 32.2924 44.9467 32.1068 44.8492C31.9749 44.7808 31.765 44.6539 31.6429 44.5707C31.5208 44.4875 31.1692 44.2337 30.8616 44.0041C30.554 43.7797 30.134 43.5059 29.9338 43.3985C29.7336 43.2961 29.4454 43.174 29.299 43.1301C29.1525 43.0861 28.923 43.0519 28.7862 43.0519C28.6544 43.0519 28.42 43.0861 28.2735 43.1301C28.127 43.174 27.9073 43.2815 27.7852 43.3695C27.6631 43.4574 27.4971 43.6134 27.4141 43.716C27.331 43.8235 27.1943 44.0288 27.1113 44.1752C27.0088 44.3558 26.9258 44.6049 26.8622 44.932C26.8085 45.2005 26.7451 45.6645 26.7158 45.9577C26.6865 46.2506 26.6474 46.9441 26.6328 47.496C26.6132 48.0478 26.6279 49.1811 26.6572 50.011C26.6914 50.8414 26.7451 52.0426 26.7841 52.6729C26.8232 53.3028 26.872 54.3086 26.9306 55.9937H0V30.6718L1.18661 30.662C1.84095 30.662 3.0178 30.6083 3.83328 30.5497Z" fill="#1D68A5"/>
<path d="M1.18136 30.6082C1.83571 30.6033 2.59748 30.5789 2.8807 30.5545C3.16393 30.5349 3.57899 30.5154 3.8085 30.5154C4.12102 30.5154 4.02336 30.5301 3.41785 30.574C2.97348 30.6082 2.09451 30.6521 1.46459 30.6668C0.834657 30.6863 0.243795 30.6814 0.155898 30.6619C0.0631182 30.6375 0.478188 30.618 1.18136 30.6082Z" fill="#1C68A5" fill-opacity="0.6"/>
<path d="M28.42 30.5498L33.5131 30.5352C36.3112 30.5303 38.6698 30.5205 38.8944 30.5107L38.7479 30.5498C38.6698 30.5694 36.321 30.5889 28.4688 30.5986L28.4444 37.4602L28.42 30.5498Z" fill="#1C68A5" fill-opacity="0.6"/>
<path d="M48.1233 30.5842C47.0732 30.5891 46.0968 30.5744 45.9504 30.5597C45.804 30.5402 46.585 30.5305 47.684 30.5402C48.7826 30.5451 49.7641 30.5597 49.8568 30.5695C49.9495 30.5744 49.1733 30.5842 48.1233 30.5842Z" fill="#1C68A5" fill-opacity="0.6"/>
<path d="M17.2868 30.6768C17.2722 30.6621 17.3845 30.6328 17.531 30.6084C17.6824 30.5791 19.8114 30.5596 26.9555 30.5498L26.9311 37.8997L26.9067 30.5986H22.463C19.621 30.5986 17.8924 30.6182 17.6677 30.6475C17.4724 30.6768 17.3015 30.6914 17.2868 30.6768Z" fill="#1C68A5" fill-opacity="0.6"/>
<path d="M56.0933 49.6695C56.0881 53.1614 56.0833 50.314 56.0833 43.345C56.0833 36.3762 56.0881 33.5192 56.0933 36.9964C56.1028 40.4735 56.1028 46.1776 56.0933 49.6695Z" fill="#1C68A5" fill-opacity="0.6"/>
<path d="M190.346 41.3525C189.687 41.3525 189.028 41.333 188.881 41.3086C188.705 41.2842 189.242 41.2695 190.395 41.2695C191.635 41.2695 192.08 41.2842 191.86 41.3135C191.684 41.3379 191.005 41.3574 190.346 41.3525Z" fill="#1C68A5" fill-opacity="0.6"/>
<path d="M26.784 52.5996C26.7498 52.0621 26.7108 51.2074 26.6961 50.695C26.6863 50.1821 26.6814 49.8888 26.6912 50.0356C26.701 50.1821 26.745 50.8656 26.784 51.5496C26.8231 52.2332 26.8524 52.9705 26.8524 53.1853C26.8475 53.4344 26.8231 53.2247 26.784 52.5996Z" fill="#1C68A5" fill-opacity="0.6"/>
</g>
<defs>
<clipPath id="clip0_5481_57479">
<rect width="200" height="55.9671" fill="white" transform="translate(0 0.0268555)"/>
</clipPath>
</defs>
</svg>
